<svg width="25" height="25" viewBox="0 0 25 25" fill="none" xmlns="http://www.w3.org/2000/svg">
<path d="M14.214 12.377L18.6671 7.92383C18.8785 7.71286 18.9973 7.42657 18.9976 7.12795C18.9979 6.82932 18.8795 6.54283 18.6685 6.33148C18.4575 6.12014 18.1713 6.00126 17.8726 6.00099C17.574 6.00073 17.2875 6.11911 17.0762 6.33008L12.623 10.7832L8.16992 6.33008C7.95858 6.11873 7.67193 6 7.37305 6C7.07416 6 6.78751 6.11873 6.57617 6.33008C6.36483 6.54142 6.24609 6.82807 6.24609 7.12695C6.24609 7.42584 6.36483 7.71248 6.57617 7.92383L11.0293 12.377L6.57617 16.8301C6.36483 17.0414 6.24609 17.3281 6.24609 17.627C6.24609 17.9258 6.36483 18.2125 6.57617 18.4238C6.78751 18.6352 7.07416 18.7539 7.37305 18.7539C7.67193 18.7539 7.95858 18.6352 8.16992 18.4238L12.623 13.9707L17.0762 18.4238C17.2875 18.6352 17.5742 18.7539 17.873 18.7539C18.1719 18.7539 18.4586 18.6352 18.6699 18.4238C18.8813 18.2125 19 17.9258 19 17.627C19 17.3281 18.8813 17.0414 18.6699 16.8301L14.214 12.377Z" fill="white"/>
</svg>
